<?xml version="1.0" encoding="utf-8"?>
<!-- Generator: Adobe Illustrator 22.1.0, SVG Export Plug-In . SVG Version: 6.00 Build 0)  -->
<svg version="1.1" id="Layer_1" xmlns="http://www.w3.org/2000/svg" xmlns:xlink="http://www.w3.org/1999/xlink" x="0px" y="0px"
	 viewBox="0 0 360 68.5" style="enable-background:new 0 0 360 68.5;" xml:space="preserve">
<style type="text/css">
	.st0{fill:#FFFFFF;}
	.st1{fill:#962B28;stroke:#FFFFFF;stroke-width:0.25;stroke-miterlimit:10;}
</style>
<path class="st0" d="M58.4,65.3c-1.3-0.5-2.3-1.1-3-1.9l0.6-1.1c0.7,0.7,1.6,1.3,2.8,1.8c1.2,0.5,2.4,0.7,3.7,0.7
	c1.9,0,3.3-0.4,4.2-1.1c0.9-0.7,1.4-1.6,1.4-2.8c0-0.9-0.3-1.6-0.8-2.1c-0.5-0.5-1.1-0.9-1.9-1.2c-0.7-0.3-1.8-0.6-3-0.9
	c-1.4-0.4-2.6-0.7-3.5-1c-0.9-0.3-1.6-0.9-2.2-1.6c-0.6-0.7-0.9-1.6-0.9-2.8c0-0.9,0.3-1.8,0.8-2.6c0.5-0.8,1.3-1.4,2.3-1.9
	c1-0.5,2.3-0.7,3.9-0.7c1.1,0,2.1,0.2,3.2,0.5c1,0.3,1.9,0.7,2.7,1.3l-0.5,1.1c-0.8-0.5-1.6-1-2.6-1.2c-0.9-0.3-1.9-0.4-2.8-0.4
	c-1.8,0-3.2,0.4-4.1,1.1c-0.9,0.7-1.4,1.7-1.4,2.8c0,0.9,0.3,1.6,0.8,2.1c0.5,0.5,1.1,0.9,1.9,1.2c0.7,0.3,1.8,0.6,3,0.9
	c1.4,0.4,2.6,0.7,3.4,1c0.9,0.3,1.6,0.8,2.2,1.5c0.6,0.7,0.9,1.6,0.9,2.8c0,0.9-0.3,1.8-0.8,2.6c-0.5,0.8-1.3,1.4-2.4,1.9
	c-1.1,0.5-2.4,0.7-3.9,0.7C61.1,66.1,59.7,65.8,58.4,65.3z"/>
<path class="st0" d="M84.3,47.7h-7v-1.3h15.5v1.3h-7v18.3h-1.4V47.7z"/>
<path class="st0" d="M116.3,64.7v1.3h-13.5V46.4h13.1v1.3h-11.7v7.7h10.4v1.3h-10.4v8H116.3z"/>
<path class="st0" d="M140.1,60.4h-11.3l-2.5,5.5h-1.5l9-19.6h1.4l9,19.6h-1.5L140.1,60.4z M139.6,59.2l-5.1-11.3l-5.1,11.3H139.6z"
	/>
<path class="st0" d="M160,56.3l-4.4,4.5v5.1h-1.4V46.4h1.4V59l12.2-12.6h1.7l-8.6,8.9l9.2,10.7h-1.7L160,56.3z"/>
<path class="st0" d="M196.3,46.4v19.6h-1.4v-9.3h-13.1v9.3h-1.4V46.4h1.4v9h13.1v-9H196.3z"/>
<path class="st0" d="M212.7,64.8c-1.5-0.9-2.8-2.1-3.6-3.6c-0.9-1.5-1.3-3.2-1.3-5.1c0-1.9,0.4-3.5,1.3-5.1c0.9-1.5,2.1-2.7,3.6-3.6
	c1.5-0.9,3.3-1.3,5.2-1.3c1.9,0,3.7,0.4,5.2,1.3c1.5,0.9,2.8,2,3.6,3.5c0.9,1.5,1.3,3.2,1.3,5.1s-0.4,3.6-1.3,5.1
	c-0.9,1.5-2.1,2.7-3.6,3.5c-1.5,0.9-3.3,1.3-5.2,1.3C216,66.1,214.2,65.6,212.7,64.8z M222.3,63.6c1.3-0.7,2.4-1.8,3.1-3.1
	c0.8-1.3,1.1-2.8,1.1-4.4s-0.4-3.1-1.1-4.4c-0.8-1.3-1.8-2.3-3.1-3.1c-1.3-0.7-2.8-1.1-4.4-1.1c-1.6,0-3.1,0.4-4.5,1.1
	c-1.3,0.7-2.4,1.8-3.1,3.1c-0.8,1.3-1.1,2.8-1.1,4.4s0.4,3.1,1.1,4.4c0.8,1.3,1.8,2.3,3.1,3.1c1.3,0.7,2.8,1.1,4.5,1.1
	C219.5,64.8,221,64.4,222.3,63.6z"/>
<path class="st0" d="M241.4,63.9c-1.4-1.4-2.1-3.5-2.1-6.3V46.4h1.4v11.2c0,2.4,0.5,4.2,1.6,5.4c1.1,1.2,2.7,1.8,4.8,1.8
	c2.1,0,3.6-0.6,4.7-1.8c1.1-1.2,1.6-3,1.6-5.4V46.4h1.4v11.3c0,2.8-0.7,4.9-2.1,6.3c-1.4,1.4-3.3,2.2-5.8,2.2
	C244.7,66.1,242.8,65.4,241.4,63.9z"/>
<path class="st0" d="M269.2,65.3c-1.3-0.5-2.3-1.1-3-1.9l0.6-1.1c0.7,0.7,1.6,1.3,2.8,1.8c1.2,0.5,2.4,0.7,3.7,0.7
	c1.9,0,3.3-0.4,4.2-1.1c0.9-0.7,1.4-1.6,1.4-2.8c0-0.9-0.3-1.6-0.8-2.1c-0.5-0.5-1.1-0.9-1.9-1.2c-0.7-0.3-1.8-0.6-3-0.9
	c-1.4-0.4-2.6-0.7-3.5-1s-1.6-0.9-2.2-1.6c-0.6-0.7-0.9-1.6-0.9-2.8c0-0.9,0.3-1.8,0.8-2.6c0.5-0.8,1.3-1.4,2.3-1.9
	c1-0.5,2.3-0.7,3.9-0.7c1.1,0,2.1,0.2,3.2,0.5c1,0.3,1.9,0.7,2.7,1.3l-0.5,1.1c-0.8-0.5-1.6-1-2.6-1.2c-0.9-0.3-1.9-0.4-2.8-0.4
	c-1.8,0-3.2,0.4-4.1,1.1c-0.9,0.7-1.4,1.7-1.4,2.8c0,0.9,0.3,1.6,0.8,2.1c0.5,0.5,1.1,0.9,1.9,1.2c0.7,0.3,1.8,0.6,3,0.9
	c1.4,0.4,2.6,0.7,3.4,1c0.9,0.3,1.6,0.8,2.2,1.5c0.6,0.7,0.9,1.6,0.9,2.8c0,0.9-0.3,1.8-0.8,2.6c-0.5,0.8-1.3,1.4-2.4,1.9
	c-1.1,0.5-2.4,0.7-3.9,0.7C271.9,66.1,270.5,65.8,269.2,65.3z"/>
<path class="st0" d="M305.2,64.7v1.3h-13.5V46.4h13.1v1.3h-11.7v7.7h10.4v1.3h-10.4v8H305.2z"/>
<path class="st1" d="M62.7,2.4c2,0.1,3.7,0.1,5,0.1c1.3,0,2.9,0,5-0.1c2-0.1,3.7-0.1,4.9-0.2c0.7,0,1.8-0.1,3.1-0.4l0.9,6.9
	C81.3,8.9,80.9,9,80.3,9c-0.2,0-0.4-0.1-0.4-0.2c-0.4-1.6-1-2.8-1.7-3.3S76.4,4.6,75,4.6c-2.8,0-4.2,0.3-4.3,0.8
	c-0.3,0.9-0.4,2.3-0.4,4.2v16.2c0,1.6,0.1,2.9,0.4,3.9c0,0.2,0.4,0.4,1.2,0.7c0.8,0.2,1.3,0.3,1.6,0.3c0.1,0,0.2,0.3,0.2,0.8
	c0,0.3,0,0.5-0.1,0.7c-0.4,0-1-0.1-1.7-0.1c-0.8-0.1-1.5-0.1-2.1-0.1c-0.6,0-1.3,0-1.9,0c-0.8,0-1.9,0-3.3,0.1
	c-1.4,0.1-2.3,0.1-2.6,0.2c-0.1-0.1-0.2-0.4-0.2-0.7c0-0.5,0.1-0.8,0.2-0.8c0.4,0,0.9-0.1,1.7-0.3c0.8-0.2,1.2-0.4,1.3-0.7
	c0.2-0.8,0.4-2,0.4-3.7V9.7c0-2.5-0.1-3.9-0.4-4.3c-0.2-0.5-1.7-0.8-4.3-0.8c-1.5,0-2.5,0.3-3.2,0.9S56,7.1,55.5,8.7
	c0,0.2-0.2,0.3-0.4,0.3c-0.6,0-1-0.1-1.2-0.4l0.9-6.8c1.3,0.3,2.3,0.4,3.1,0.4C59.1,2.3,60.7,2.4,62.7,2.4z"/>
<path class="st1" d="M84.3,28c-2.8-3-4.2-6.5-4.2-10.7s1.4-7.8,4.2-10.7S90.5,2,94.4,2c3.9,0,7.3,1.5,10.2,4.5
	c2.8,3,4.2,6.6,4.2,10.7s-1.4,7.8-4.2,10.7c-2.8,3-6.2,4.4-10.2,4.4C90.5,32.4,87.1,30.9,84.3,28z M93.7,4.2c-2.6,0-4.5,1.2-5.9,3.5
	c-1.4,2.3-2,5.2-2,8.5c0,2.2,0.3,4.4,0.9,6.4c0.6,2,1.7,3.8,3.1,5.3c1.5,1.5,3.2,2.2,5.3,2.2c2.5,0,4.5-1.2,5.9-3.6
	c1.4-2.4,2.1-5.2,2.1-8.5c0-2.3-0.3-4.5-0.9-6.5c-0.6-2-1.6-3.8-3.1-5.2S95.9,4.2,93.7,4.2z"/>
<path class="st1" d="M114.3,2.5c0.1,0,1.6-0.1,4.4-0.3c0.3,0.8,0.9,2.4,1.8,4.6s2.1,5,3.5,8.2c1.4,3.2,2.5,5.9,3.3,8
	c0,0.1,0,0.1,0.1,0.1s0.1,0,0.1-0.1c2.6-6.3,4.7-11.5,6.3-15.6l1.6-5.2c0.9,0.1,2.1,0.1,3.7,0.1c1.2,0,2.9-0.1,5.3-0.2
	c0.1,0.1,0.1,0.4,0.1,0.7c0,0.5-0.1,0.8-0.2,0.8h-0.1c-0.8,0-1.5,0.2-2.2,0.7c-0.4,0.3-0.6,1.1-0.6,2.4c0.1,2.7,0.3,8.8,0.6,18.5
	c0,1.6,0.3,3,0.7,4.1c0.1,0.3,0.5,0.5,1.3,0.7s1.2,0.3,1.5,0.3c0.1,0,0.2,0.3,0.2,0.8c0,0.3,0,0.5-0.1,0.7c-3.6-0.2-5.4-0.3-5.5-0.3
	c-0.6,0-1.2,0-1.9,0s-1.4,0.1-2.2,0.1c-0.8,0-1.4,0.1-1.9,0.1c-0.1-0.1-0.2-0.3-0.2-0.7c0-0.5,0.1-0.8,0.2-0.8
	c0.3,0,0.8-0.1,1.4-0.3s1-0.4,1.3-0.7c0.3-0.4,0.4-0.9,0.4-1.6v-2.5L137.1,12c-0.1-1.9-0.3-2.8-0.5-2.8c-0.1,0-0.2,0.1-0.2,0.3
	l-8.6,20.9c-0.5,1.1-1.1,1.7-1.7,1.7c-0.1,0-0.3,0-0.4-0.1l-10-24.1c-0.2,7.4-0.4,14.1-0.7,20c0,0.7,0,1.1,0.1,1.4
	c0.1,0.3,0.7,0.6,1.8,0.9c1,0.3,1.7,0.4,2.1,0.4c0.1,0,0.2,0.3,0.2,0.8c0,0.3,0,0.5-0.1,0.7c-3.6-0.2-5.5-0.3-5.6-0.3
	c-0.8,0-1.9,0-3.2,0.1s-2.1,0.1-2.4,0.1c-0.1-0.1-0.2-0.4-0.2-0.7c0-0.5,0.1-0.8,0.2-0.8c0.5,0,1.2-0.1,2.2-0.4
	c1-0.3,1.6-0.7,1.7-1.2c0.3-0.5,0.4-1.5,0.5-3c0.1-2.3,0.1-5,0.2-8s0.2-5.7,0.3-7.9c0.1-2.2,0.1-3.5,0.1-4.1c0-0.6,0-1-0.1-1.3
	c-0.1-0.2-0.6-0.5-1.5-0.7c-0.9-0.2-1.6-0.3-2-0.3c-0.1,0-0.2-0.3-0.2-0.8c0-0.3,0.1-0.6,0.2-0.7c0.4,0,1.2,0.1,2.3,0.2
	S113.6,2.5,114.3,2.5z"/>
<path class="st1" d="M163,2.4l9.4,23.5c0.4,1.2,0.9,2.3,1.3,3.3c0.2,0.4,0.7,0.8,1.4,1.1c0.8,0.3,1.3,0.4,1.7,0.4
	c0.1,0,0.2,0.3,0.2,0.8c0,0.4,0,0.6-0.1,0.7c-3.6-0.2-5.5-0.3-5.6-0.3c-0.2,0-2.2,0.1-5.8,0.3c-0.1-0.1-0.2-0.4-0.2-0.8
	c0-0.4,0.1-0.7,0.2-0.7c0.4,0,0.9-0.1,1.5-0.3c0.6-0.2,1-0.4,1.1-0.6c0.1-0.2,0.1-0.4,0.1-0.6c0-0.6-0.3-1.6-0.9-3.1l-1.6-4.2
	c-0.1-0.1-0.2-0.2-0.3-0.2c-1-0.1-2.2-0.1-3.9-0.1s-3.3,0-5.1,0.1c-0.2,0-0.3,0.1-0.3,0.2l-1.7,4.2c-0.6,1.6-0.9,2.5-0.9,2.9
	s0.2,0.7,0.5,0.9c0.3,0.2,0.7,0.3,1.4,0.5c0.7,0.1,1.1,0.2,1.4,0.2c0.1,0,0.1,0.2,0.1,0.6c0,0.4,0,0.7-0.1,0.9c-0.1,0-0.9,0-2.1-0.1
	c-1.3-0.1-2.3-0.1-3-0.1c-0.8,0-1.7,0-2.8,0.1s-1.8,0.1-2.3,0.2c-0.1-0.1-0.2-0.3-0.2-0.7c0-0.5,0-0.8,0.1-0.8
	c0.4,0,0.9-0.1,1.7-0.4s1.3-0.5,1.5-0.9c0.6-0.9,1.1-2.1,1.7-3.5L160,5.7c0.7-1.8,1.2-2.9,1.7-3.2c0.2-0.2,0.5-0.3,0.8-0.3
	C162.7,2.1,162.8,2.2,163,2.4z M157.6,19c1,0.1,2.1,0.1,3.2,0.1c1,0,2.3,0,3.7-0.1l0.1-0.2l-3.4-9l-3.7,9
	C157.5,19,157.5,19,157.6,19z"/>
<path class="st1" d="M206.8,30.6c0.1,0,0.2,0.3,0.2,0.9c0,0.2,0,0.4-0.1,0.6c-3.6-0.2-5.5-0.3-5.7-0.3c-0.6,0-1.2,0-1.9,0
	s-1.4,0.1-2.2,0.1c-0.8,0-1.4,0.1-1.9,0.1c-0.1-0.1-0.2-0.3-0.2-0.6c0-0.6,0.1-0.9,0.2-0.9c0.4,0,0.9-0.1,1.7-0.3
	c0.8-0.2,1.2-0.4,1.3-0.7c0.2-0.9,0.4-2.2,0.4-3.8v-7.7l-0.1-0.2c-2.8-0.1-4.8-0.1-5.9-0.1c-4.1,0.1-6.2,0.1-6.2,0.2v7.5
	c0,1.6,0.1,3,0.4,4c0.1,0.2,0.5,0.4,1.2,0.7s1.3,0.3,1.5,0.3c0.1,0,0.2,0.3,0.2,0.9c0,0.2,0,0.4-0.1,0.6c-3.6-0.2-5.5-0.3-5.7-0.3
	c-0.6,0-1.2,0-1.9,0s-1.4,0.1-2.2,0.1c-0.8,0-1.4,0.1-1.9,0.1c-0.1-0.1-0.2-0.3-0.2-0.6c0-0.6,0.1-0.9,0.2-0.9
	c0.4,0,0.9-0.1,1.7-0.3c0.8-0.2,1.2-0.4,1.3-0.7c0.2-0.9,0.4-2.2,0.4-3.8V8.5c0-1.8-0.1-3-0.4-3.8c-0.1-0.2-0.5-0.5-1.3-0.7
	c-0.7-0.2-1.3-0.3-1.6-0.3c-0.1,0-0.2-0.2-0.2-0.7c0-0.5,0-0.7,0.1-0.8c0.1,0,1,0,2.5,0.1c1.5,0.1,2.7,0.1,3.5,0.1
	c0.2,0,2.2-0.1,5.7-0.3c0.1,0.3,0.1,0.5,0.1,0.7c0,0.5-0.1,0.8-0.2,0.8c-0.3,0-0.8,0.1-1.6,0.4c-0.8,0.2-1.2,0.5-1.3,0.7
	c-0.2,0.9-0.4,2.2-0.4,3.9v6.5l0.1,0.1c2.9,0.1,5,0.1,6.1,0.1c1.3,0,3.2,0,5.9-0.1c0.1-0.1,0.1-0.1,0.1-0.2V8.5c0-1.8-0.1-3-0.4-3.8
	c-0.1-0.2-0.5-0.5-1.3-0.7c-0.7-0.2-1.3-0.3-1.6-0.3c-0.1,0-0.2-0.2-0.2-0.7c0-0.5,0-0.7,0.1-0.8c0.1,0,1,0,2.5,0.1
	c1.5,0.1,2.7,0.1,3.5,0.1c0.2,0,2.2-0.1,5.7-0.3c0.1,0.3,0.1,0.5,0.1,0.7c0,0.5-0.1,0.8-0.2,0.8c-0.3,0-0.8,0.1-1.6,0.4
	c-0.8,0.2-1.2,0.5-1.3,0.7c-0.2,0.9-0.4,2.2-0.4,3.9v16.9c0,1.6,0.1,3,0.4,4c0.1,0.2,0.5,0.4,1.2,0.7S206.5,30.6,206.8,30.6z"/>
<path class="st1" d="M224.1,2.4l9.4,23.5c0.4,1.2,0.9,2.3,1.3,3.3c0.2,0.4,0.7,0.8,1.4,1.1c0.8,0.3,1.3,0.4,1.7,0.4
	c0.1,0,0.2,0.3,0.2,0.8c0,0.4,0,0.6-0.1,0.7c-3.6-0.2-5.5-0.3-5.6-0.3c-0.2,0-2.2,0.1-5.8,0.3c-0.1-0.1-0.2-0.4-0.2-0.8
	c0-0.4,0.1-0.7,0.2-0.7c0.4,0,0.9-0.1,1.5-0.3c0.6-0.2,1-0.4,1.1-0.6c0.1-0.2,0.1-0.4,0.1-0.6c0-0.6-0.3-1.6-0.9-3.1l-1.6-4.2
	c-0.1-0.1-0.2-0.2-0.3-0.2c-1-0.1-2.2-0.1-3.9-0.1c-1.6,0-3.3,0-5.1,0.1c-0.2,0-0.3,0.1-0.3,0.2l-1.7,4.2c-0.6,1.6-0.9,2.5-0.9,2.9
	s0.2,0.7,0.5,0.9c0.3,0.2,0.7,0.3,1.4,0.5c0.7,0.1,1.1,0.2,1.4,0.2c0.1,0,0.1,0.2,0.1,0.6c0,0.4,0,0.7-0.1,0.9c-0.1,0-0.9,0-2.1-0.1
	c-1.3-0.1-2.3-0.1-3-0.1c-0.8,0-1.7,0-2.8,0.1s-1.8,0.1-2.3,0.2c-0.1-0.1-0.2-0.3-0.2-0.7c0-0.5,0-0.8,0.1-0.8
	c0.4,0,0.9-0.1,1.7-0.4s1.3-0.5,1.5-0.9c0.6-0.9,1.1-2.1,1.7-3.5l8.3-20.2c0.7-1.8,1.2-2.9,1.7-3.2c0.2-0.2,0.5-0.3,0.8-0.3
	C223.7,2.1,223.9,2.2,224.1,2.4z M218.7,19c1,0.1,2.1,0.1,3.2,0.1c1,0,2.3,0,3.7-0.1l0.1-0.2l-3.4-9l-3.7,9
	C218.6,19,218.6,19,218.7,19z"/>
<path class="st1" d="M234.4,2.5c0.3,0,2.1-0.1,5.4-0.3c0,0.2,0.1,0.5,0.1,0.9c0,0.4,0,0.6-0.2,0.6c-0.2,0-0.4,0-0.7,0.1
	c-0.3,0-0.6,0.2-0.9,0.4c-0.3,0.2-0.5,0.5-0.5,0.9c0,0.6,0.3,1.4,0.8,2.4l8.8,17.4c0.1,0.1,0.2,0.2,0.3,0.1c0.1-0.1,0.2-0.2,0.3-0.3
	l3.3-6.4l-4.8-9.7c-0.9-1.8-1.7-3.1-2.3-3.8c-0.3-0.3-0.7-0.6-1.2-0.8c-0.5-0.2-1-0.3-1.4-0.3c-0.1,0-0.2-0.3-0.2-0.8
	c0-0.4,0-0.6,0.1-0.7c3.8,0.2,5.7,0.3,5.9,0.3c0.2,0,2-0.1,5.3-0.3c0.1,0.2,0.1,0.5,0.1,0.9c0,0.4,0,0.6-0.1,0.6
	c-0.3,0-0.5,0-0.8,0.1s-0.6,0.2-0.9,0.4c-0.3,0.2-0.4,0.5-0.4,0.9c0,0.5,0.3,1.3,0.8,2.3l2.7,5.6l2.6-5.4c0.5-1.1,0.8-1.9,0.8-2.5
	c0-0.5-0.4-0.9-1.1-1.1c-0.7-0.2-1.4-0.3-1.9-0.3c-0.1,0-0.2-0.2-0.2-0.6s0-0.7,0.1-0.8c2.6,0.2,4.3,0.3,4.9,0.3c0.7,0,1.3,0,1.9,0
	c0.6,0,1.1-0.1,1.8-0.1c0.6,0,1.1-0.1,1.5-0.1c0.1,0.2,0.1,0.5,0.1,0.8s0,0.6-0.1,0.6c-0.4,0-0.9,0.1-1.6,0.4
	c-0.7,0.3-1.2,0.6-1.5,0.9c-0.7,0.7-1.5,2.2-2.6,4.2l-3.3,6.6l4.3,8.9c0.2,0.3,0.4,0.2,0.6-0.2c0.6-1.4,2-4.4,4.2-9.1
	s3.4-7.2,3.6-7.7c0.5-1.1,0.8-2,0.8-2.5s-0.4-0.9-1.1-1.2c-0.7-0.2-1.3-0.4-1.8-0.4c-0.1,0-0.2-0.2-0.2-0.6s0-0.7,0.2-0.8
	c2.6,0.2,4.3,0.3,5,0.3s1.3,0,1.8,0c0.5,0,1.1-0.1,1.7-0.1s1.1-0.1,1.5-0.1c0.1,0.2,0.1,0.5,0.1,0.9c0,0.4-0.1,0.5-0.2,0.5
	c-0.4,0-0.9,0.1-1.5,0.4c-0.7,0.3-1.2,0.5-1.5,0.9c-0.8,0.9-1.7,2.3-2.6,4.3L260.1,31c-0.2,0.5-0.5,0.8-0.8,1.1
	c-0.3,0.2-0.6,0.4-0.8,0.4c-0.2,0-0.3-0.1-0.4-0.2l-5.5-11l-5.1,9.8c-0.2,0.5-0.5,0.8-0.8,1.1c-0.3,0.3-0.6,0.4-0.8,0.3
	c-0.2,0-0.3-0.1-0.4-0.2L233.4,8.6c-0.8-1.7-1.6-3-2.3-3.9c-0.2-0.3-0.7-0.5-1.2-0.7s-1.1-0.3-1.4-0.3c-0.1,0-0.2-0.2-0.2-0.7
	c0-0.4,0-0.7,0.1-0.8C232.2,2.5,234.2,2.5,234.4,2.5z"/>
<path class="st1" d="M285.7,8.7v7.2c0,0.1,0,0.2,0.1,0.2c0,0,0.1,0.1,0.2,0.1h0h0.4c0.6,0,1.4-0.5,2.3-1.5c2.4-2.6,5-5.6,7.9-9
	c0.5-0.6,0.7-1,0.7-1.3c0-0.3-0.3-0.5-1-0.6c-0.7-0.1-1.2-0.2-1.7-0.2c-0.1,0-0.2-0.2-0.2-0.5c0-0.3,0-0.6,0-0.8
	c3.3,0.2,5.1,0.3,5.4,0.3c0.6,0,1.1,0,1.7,0c0.6,0,1.2-0.1,1.8-0.1c0.6,0,1.2-0.1,1.6-0.1C305,2.4,305,2.6,305,3s-0.1,0.6-0.2,0.6
	c-2.1,0.2-3.6,0.9-4.5,1.9L292,15c-0.3,0.4-0.3,0.8,0.1,1.3l10.5,12.5c0.5,0.7,1.3,1.1,2.2,1.4c0.9,0.3,1.6,0.4,2,0.4
	c0.1,0,0.2,0.3,0.2,0.9c0,0.2,0,0.4-0.1,0.6c-3.6-0.2-5.6-0.3-6.1-0.3c-1,0-2.1,0-3.4,0.1c-1.3,0.1-2.3,0.1-2.8,0.2
	c-0.1-0.1-0.2-0.4-0.2-0.8c0-0.4,0.1-0.7,0.2-0.7c0.3,0,0.7-0.1,1.3-0.3c0.5-0.2,0.8-0.4,0.8-0.7c0-0.1-0.4-0.8-1.3-1.9
	s-2-2.5-3.5-4.2c-1.5-1.7-2.9-3.3-4.3-4.8c-0.1-0.1-0.4-0.2-1-0.2c-0.5,0-0.7,0.2-0.7,0.5v6.6c0,1.6,0.1,2.9,0.4,3.9
	c0.1,0.2,0.5,0.4,1.2,0.7c0.8,0.2,1.3,0.3,1.5,0.3c0.1,0,0.2,0.3,0.2,0.9c0,0.2,0,0.4-0.1,0.6c-3.6-0.2-5.5-0.3-5.7-0.3
	c-0.6,0-1.2,0-1.9,0c-0.7,0-1.4,0.1-2.2,0.1c-0.8,0-1.4,0.1-1.9,0.1c-0.1-0.1-0.2-0.3-0.2-0.6c0-0.6,0.1-0.9,0.2-0.9
	c0.4,0,0.9-0.1,1.7-0.3c0.8-0.2,1.2-0.4,1.3-0.7c0.2-0.9,0.4-2.2,0.4-3.8V8.5c0-1.8-0.1-3-0.4-3.8c-0.1-0.2-0.5-0.5-1.3-0.7
	c-0.7-0.2-1.3-0.3-1.6-0.3c-0.1,0-0.2-0.2-0.2-0.7c0-0.5,0-0.7,0.1-0.8c0.1,0,1,0,2.5,0.1c1.5,0.1,2.7,0.1,3.5,0.1
	c0.2,0,2.2-0.1,5.7-0.3c0.1,0.3,0.1,0.5,0.1,0.7c0,0.5-0.1,0.8-0.2,0.8c-0.3,0-0.8,0.1-1.6,0.4c-0.8,0.2-1.2,0.5-1.3,0.7
	C285.8,5.7,285.7,7,285.7,8.7z"/>
<path class="st0" d="M46,37.7l-1,0c-15,0.4-30,0.6-45,1.1c15,0.5,30,0.7,45,1.1l1,0V37.7z"/>
<path class="st0" d="M315.9,37.8v2.1c14.7-0.3,29.4-0.6,44.1-1C345.3,38.3,330.6,38.1,315.9,37.8z"/>
</svg>
